<svg width="512" height="512" viewBox="0 0 80 80" fill="none" xmlns="http://www.w3.org/2000/svg">
  <defs>
    <linearGradient id="core" x1="8" y1="8" x2="72" y2="72" gradientUnits="userSpaceOnUse">
      <stop stop-color="#080A0D"/>
      <stop offset="0.56" stop-color="#151A20"/>
      <stop offset="1" stop-color="#2A160C"/>
    </linearGradient>
    <linearGradient id="copper" x1="12" y1="12" x2="66" y2="66" gradientUnits="userSpaceOnUse">
      <stop stop-color="#F4A261"/>
      <stop offset="0.48" stop-color="#D97724"/>
      <stop offset="1" stop-color="#8A4519"/>
    </linearGradient>
    <linearGradient id="cream" x1="18" y1="58" x2="54" y2="18" gradientUnits="userSpaceOnUse">
      <stop stop-color="#FFF7ED"/>
      <stop offset="1" stop-color="#E7D6BE"/>
    </linearGradient>
    <linearGradient id="teal" x1="44" y1="18" x2="64" y2="40" gradientUnits="userSpaceOnUse">
      <stop stop-color="#18C6A7"/>
      <stop offset="1" stop-color="#0F766E"/>
    </linearGradient>
  </defs>
  <circle cx="40" cy="40" r="32" fill="url(#core)"/>
  <path d="M58.8 18.2C53.7 14.4 47.2 12.2 40.2 12.2C22.8 12.2 8.8 25.9 8.8 42.8C8.8 49.2 10.8 55.1 14.3 60" stroke="url(#copper)" stroke-width="9" stroke-linecap="round"/>
  <path d="M22.4 60.7C27.2 65.1 33.5 67.8 40.4 67.8C47.8 67.8 54.6 64.8 59.5 59.9" stroke="url(#cream)" stroke-width="9" stroke-linecap="round"/>
  <path d="M25.5 28.4H38.3L55.4 55.2H43.2L25.5 28.4Z" fill="url(#copper)"/>
  <path d="M20.7 52.6L36.8 33.6L44.4 42.1L29.4 60.2H17.8L20.7 52.6Z" fill="url(#cream)"/>
  <path d="M50.2 24.2H67.2L55.5 38.9H38.5L50.2 24.2Z" fill="url(#teal)"/>
  <path d="M18 38.4H30.6" stroke="#FFF7ED" stroke-width="4" stroke-linecap="round" opacity="0.82"/>
  <path d="M49.2 47.5H63.4" stroke="#18C6A7" stroke-width="4" stroke-linecap="round" opacity="0.9"/>
</svg>
