<svg xmlns="http://www.w3.org/2000/svg" viewBox="0 0 820 220">
  <defs>
    <linearGradient id="mark-bg" x1="18" y1="18" x2="186" y2="186" gradientUnits="userSpaceOnUse">
      <stop offset="0" stop-color="#ff7a2c"/>
      <stop offset="0.45" stop-color="#f36b21"/>
      <stop offset="1" stop-color="#0b0f0d"/>
    </linearGradient>
    <linearGradient id="word" x1="230" y1="55" x2="790" y2="160" gradientUnits="userSpaceOnUse">
      <stop offset="0" stop-color="#0b0f0d"/>
      <stop offset="0.65" stop-color="#17211c"/>
      <stop offset="1" stop-color="#f36b21"/>
    </linearGradient>
  </defs>
  <rect x="22" y="22" width="176" height="176" rx="44" fill="url(#mark-bg)"/>
  <path d="M65 72c0-17 13-30 31-30h18v27H99c-6 0-9 3-9 9v62c0 6 3 9 9 9h15v27H96c-18 0-31-13-31-30V72Z" fill="#fff7ed"/>
  <path d="M123 43h31l-30 133H93l30-133Z" fill="#fff" opacity="0.96"/>
  <path d="M145 43h30l-37 133h-30l37-133Z" fill="#fff7ed" opacity="0.58"/>
  <text x="232" y="117" fill="url(#word)" font-family="Inter, Arial, Helvetica, sans-serif" font-size="78" font-weight="900" letter-spacing="-6">Churvox</text>
  <text x="237" y="160" fill="#f36b21" font-family="Inter, Arial, Helvetica, sans-serif" font-size="22" font-weight="900" letter-spacing="4">DOES THE ADMIN</text>
</svg>
