<svg width="900" height="220" viewBox="0 0 900 220" fill="none" xmlns="http://www.w3.org/2000/svg">
  <defs>
    <linearGradient id="markBlue" x1="30" y1="32" x2="184" y2="188" gradientUnits="userSpaceOnUse">
      <stop stop-color="#38D9FF"/>
      <stop offset="0.46" stop-color="#1767FF"/>
      <stop offset="1" stop-color="#071935"/>
    </linearGradient>
    <linearGradient id="wordGrad" x1="240" y1="54" x2="890" y2="170" gradientUnits="userSpaceOnUse">
      <stop stop-color="#06162E"/>
      <stop offset="0.72" stop-color="#071935"/>
      <stop offset="1" stop-color="#1767FF"/>
    </linearGradient>
    <filter id="glow" x="0" y="0" width="230" height="220" filterUnits="userSpaceOnUse" color-interpolation-filters="sRGB">
      <feDropShadow dx="0" dy="18" stdDeviation="16" flood-color="#1767FF" flood-opacity="0.22"/>
    </filter>
  </defs>

  <g filter="url(#glow)">
    <rect x="34" y="34" width="152" height="152" rx="44" fill="#F7FBFF"/>
    <path d="M118 33C70.5 33 34 67.9 34 110C34 152.1 70.5 187 118 187C144.7 187 168.1 175.9 183.2 158.6L151.5 130.4C144 140 132 146 118 146C96.5 146 79.3 130.1 79.3 110C79.3 89.9 96.5 74 118 74C132 74 144 80 151.5 89.6L183.2 61.4C168.1 44.1 144.7 33 118 33Z" fill="url(#markBlue)"/>
    <path d="M23 88H79.5" stroke="#1767FF" stroke-width="13" stroke-linecap="round"/>
    <path d="M14 110H78" stroke="#38D9FF" stroke-width="13" stroke-linecap="round"/>
    <path d="M23 132H79.5" stroke="#071935" stroke-width="13" stroke-linecap="round"/>
    <path d="M110 83L190 110L110 137L128.8 110L110 83Z" fill="white"/>
    <path d="M133 96L190 110L133 124L142.4 110L133 96Z" fill="#1767FF"/>
    <circle cx="48" cy="88" r="6" fill="#38D9FF"/>
    <circle cx="39" cy="132" r="6" fill="#1767FF"/>
  </g>

  <text x="238" y="133" fill="url(#wordGrad)" font-family="Inter, Arial, Helvetica, sans-serif" font-size="84" font-weight="950" letter-spacing="10">CHURVOX</text>
  <path d="M242 158H632" stroke="#1767FF" stroke-width="7" stroke-linecap="round"/>
  <path d="M650 158H872" stroke="#DCE9F8" stroke-width="7" stroke-linecap="round"/>
</svg>
