<?xml version="1.0" encoding="UTF-8"?>
<svg xmlns="http://www.w3.org/2000/svg" viewBox="0 0 512 512" role="img" aria-label="Churvox app icon">
  <defs>
    <linearGradient id="bg" x1="72" y1="38" x2="440" y2="474" gradientUnits="userSpaceOnUse">
      <stop stop-color="#34363b"/>
      <stop offset="0.54" stop-color="#111417"/>
      <stop offset="1" stop-color="#060708"/>
    </linearGradient>
    <linearGradient id="orange" x1="96" y1="98" x2="407" y2="405" gradientUnits="userSpaceOnUse">
      <stop stop-color="#ffb13d"/>
      <stop offset="0.46" stop-color="#ff8a00"/>
      <stop offset="1" stop-color="#f36b00"/>
    </linearGradient>
    <linearGradient id="silver" x1="155" y1="180" x2="418" y2="308" gradientUnits="userSpaceOnUse">
      <stop stop-color="#ffffff"/>
      <stop offset="0.48" stop-color="#f3f4f6"/>
      <stop offset="1" stop-color="#d7dbe1"/>
    </linearGradient>
    <filter id="lift" x="-20%" y="-20%" width="140%" height="140%">
      <feDropShadow dx="0" dy="12" stdDeviation="9" flood-color="#000000" flood-opacity="0.42"/>
    </filter>
    <filter id="soft" x="-20%" y="-20%" width="140%" height="140%">
      <feDropShadow dx="0" dy="8" stdDeviation="5" flood-color="#000000" flood-opacity="0.45"/>
    </filter>
  </defs>
  <rect x="42" y="42" width="428" height="428" rx="92" fill="url(#bg)"/>
  <rect x="44" y="44" width="424" height="424" rx="90" fill="none" stroke="#ffffff" stroke-opacity="0.08" stroke-width="4"/>
  <g filter="url(#soft)">
    <path d="M143 240C160 166 226 112 304 112C337 112 368 122 394 139" fill="none" stroke="url(#orange)" stroke-width="55" stroke-linecap="round"/>
    <path d="M187 315C217 368 278 395 339 378C367 370 392 354 411 333" fill="none" stroke="url(#orange)" stroke-width="55" stroke-linecap="round"/>
    <path d="M95 266H142" fill="none" stroke="url(#orange)" stroke-width="14" stroke-linecap="round"/>
    <path d="M113 291H151" fill="none" stroke="url(#orange)" stroke-width="14" stroke-linecap="round"/>
    <path d="M125 316H205" fill="none" stroke="url(#orange)" stroke-width="14" stroke-linecap="round"/>
    <circle cx="81" cy="291" r="9" fill="#ff8a00"/>
  </g>
  <g filter="url(#lift)">
    <path d="M164 282L240 256L302 292L407 190" fill="none" stroke="url(#silver)" stroke-width="30" stroke-linecap="round" stroke-linejoin="round"/>
    <circle cx="164" cy="282" r="24" fill="#0c0f11" stroke="url(#silver)" stroke-width="18"/>
    <circle cx="240" cy="256" r="20" fill="#0c0f11" stroke="url(#silver)" stroke-width="16"/>
    <circle cx="407" cy="190" r="20" fill="#0c0f11" stroke="url(#silver)" stroke-width="16"/>
  </g>
</svg>
