<?xml version="1.0" encoding="UTF-8"?>
<svg xmlns="http://www.w3.org/2000/svg" viewBox="0 0 512 512" role="img" aria-label="Churvox app icon">
  <defs>
    <linearGradient id="bg" x1="54" y1="38" x2="458" y2="474" gradientUnits="userSpaceOnUse">
      <stop stop-color="#17211b"/>
      <stop offset="0.52" stop-color="#0f172a"/>
      <stop offset="1" stop-color="#050706"/>
    </linearGradient>
    <linearGradient id="orange" x1="112" y1="84" x2="420" y2="416" gradientUnits="userSpaceOnUse">
      <stop stop-color="#ffb35c"/>
      <stop offset="0.46" stop-color="#f97316"/>
      <stop offset="1" stop-color="#c2410c"/>
    </linearGradient>
    <filter id="shadow" x="-30%" y="-30%" width="160%" height="160%">
      <feDropShadow dx="0" dy="18" stdDeviation="16" flood-color="#000000" flood-opacity="0.48"/>
    </filter>
    <filter id="glow" x="-30%" y="-30%" width="160%" height="160%">
      <feDropShadow dx="0" dy="8" stdDeviation="8" flood-color="#f97316" flood-opacity="0.34"/>
    </filter>
  </defs>
  <rect x="32" y="32" width="448" height="448" rx="112" fill="url(#bg)"/>
  <rect x="43" y="43" width="426" height="426" rx="103" fill="none" stroke="#ffffff" stroke-opacity="0.12" stroke-width="5"/>
  <path d="M92 132C152 84 235 68 308 91C381 114 431 170 445 240" fill="none" stroke="url(#orange)" stroke-width="18" stroke-linecap="round" opacity="0.92"/>
  <path d="M420 386C354 434 262 446 187 412C121 382 78 327 67 262" fill="none" stroke="url(#orange)" stroke-width="18" stroke-linecap="round" opacity="0.62"/>
  <g filter="url(#shadow)">
    <path d="M301 152H213C166 152 128 190 128 237V275C128 322 166 360 213 360H301" fill="none" stroke="#f8fafc" stroke-width="44" stroke-linecap="round" stroke-linejoin="round"/>
    <path d="M207 152L265 360" fill="none" stroke="#f8fafc" stroke-width="44" stroke-linecap="round"/>
    <path d="M265 360L385 152" fill="none" stroke="#f8fafc" stroke-width="44" stroke-linecap="round" stroke-linejoin="round"/>
  </g>
  <g filter="url(#glow)">
    <path d="M211 152C165 152 128 190 128 237V275C128 322 165 360 211 360" fill="none" stroke="url(#orange)" stroke-width="17" stroke-linecap="round" opacity="0.98"/>
    <path d="M265 360L385 152" fill="none" stroke="url(#orange)" stroke-width="17" stroke-linecap="round" opacity="0.98"/>
  </g>
</svg>
