<?xml version="1.0" encoding="UTF-8"?>
<svg xmlns="http://www.w3.org/2000/svg" viewBox="0 0 128 128" role="img" aria-label="Churvox">
  <defs>
    <linearGradient id="cvDark" x1="18" y1="12" x2="108" y2="118" gradientUnits="userSpaceOnUse">
      <stop stop-color="#06142B"/>
      <stop offset="0.55" stop-color="#06101F"/>
      <stop offset="1" stop-color="#020713"/>
    </linearGradient>
    <linearGradient id="cvBlue" x1="21" y1="92" x2="107" y2="26" gradientUnits="userSpaceOnUse">
      <stop stop-color="#22D3EE"/>
      <stop offset="0.44" stop-color="#2563EB"/>
      <stop offset="1" stop-color="#0B1B54"/>
    </linearGradient>
    <linearGradient id="cvCyan" x1="28" y1="85" x2="94" y2="36" gradientUnits="userSpaceOnUse">
      <stop stop-color="#67E8F9"/>
      <stop offset="1" stop-color="#08BDF2"/>
    </linearGradient>
    <filter id="glow" x="-35%" y="-35%" width="170%" height="170%">
      <feGaussianBlur stdDeviation="3.2" result="blur"/>
      <feColorMatrix in="blur" type="matrix" values="0 0 0 0 0.03 0 0 0 0 0.58 0 0 0 0 1 0 0 0 .7 0"/>
      <feBlend in="SourceGraphic"/>
    </filter>
  </defs>
  <rect x="6" y="6" width="116" height="116" rx="29" fill="url(#cvDark)"/>
  <rect x="7.5" y="7.5" width="113" height="113" rx="27.5" fill="none" stroke="#38BDF8" stroke-opacity="0.22"/>
  <path d="M92.4 22.5A44 44 0 1 0 92.4 105.5" fill="none" stroke="url(#cvBlue)" stroke-width="15" stroke-linecap="round" filter="url(#glow)"/>
  <path d="M94 24.5 112 36.5 92.5 48.7Z" fill="url(#cvBlue)" filter="url(#glow)"/>
  <path d="M92.5 79.3 112 91.5 94 103.5Z" fill="url(#cvBlue)" filter="url(#glow)"/>
  <path d="M17 48h39c10 0 13.2-5.6 19.7-10.2 5.1-3.6 10-4.1 16.3-3.8" fill="none" stroke="#F8FBFF" stroke-width="12" stroke-linecap="round"/>
  <path d="M17 64h39c10 0 13.3 5.8 19.7 10.4 5 3.5 10.2 4.1 16.3 3.6" fill="none" stroke="#F8FBFF" stroke-width="12" stroke-linecap="round"/>
  <path d="M17 48h39c10 0 13.2-5.6 19.7-10.2 5.1-3.6 10-4.1 16.3-3.8" fill="none" stroke="url(#cvCyan)" stroke-width="6" stroke-linecap="round" filter="url(#glow)"/>
  <path d="M17 64h39c10 0 13.3 5.8 19.7 10.4 5 3.5 10.2 4.1 16.3 3.6" fill="none" stroke="url(#cvCyan)" stroke-width="6" stroke-linecap="round" filter="url(#glow)"/>
  <path d="M14 80h42" fill="none" stroke="url(#cvCyan)" stroke-width="6" stroke-linecap="round" opacity="0.92"/>
  <circle cx="10" cy="48" r="4.5" fill="#22D3EE"/>
  <circle cx="10" cy="64" r="4.5" fill="#22D3EE"/>
  <circle cx="10" cy="80" r="4.5" fill="#22D3EE"/>
  <path d="M67 51.5 80 44l13 7.5v15L80 74l-13-7.5z" fill="#22D3EE" filter="url(#glow)"/>
</svg>
